<svg width="17" height="21" viewBox="0 0 17 21" fill="none" xmlns="http://www.w3.org/2000/svg">
<path fill-rule="evenodd" clip-rule="evenodd" d="M13.1289 5.62817C13.1289 8.3896 10.8903 10.6282 8.12891 10.6282C5.36748 10.6282 3.12891 8.3896 3.12891 5.62817C3.12891 2.86675 5.36748 0.628174 8.12891 0.628174C10.8903 0.628174 13.1289 2.86675 13.1289 5.62817ZM11.6289 5.62817C11.6289 7.56117 10.0619 9.12817 8.12891 9.12817C6.19591 9.12817 4.62891 7.56117 4.62891 5.62817C4.62891 3.69518 6.19591 2.12817 8.12891 2.12817C10.0619 2.12817 11.6289 3.69518 11.6289 5.62817Z" fill="#822B23"/>
<path fill-rule="evenodd" clip-rule="evenodd" d="M16.1289 16.1282C16.1289 18.6135 12.5472 20.6282 8.12891 20.6282C3.71063 20.6282 0.128906 18.6135 0.128906 16.1282C0.128906 13.6429 3.71063 11.6282 8.12891 11.6282C12.5472 11.6282 16.1289 13.6429 16.1289 16.1282ZM14.6289 16.1282C14.6289 16.5882 14.2816 17.3102 13.0504 18.0028C11.8662 18.6689 10.1292 19.1282 8.12891 19.1282C6.12859 19.1282 4.39164 18.6689 3.20744 18.0028C1.97623 17.3102 1.62891 16.5882 1.62891 16.1282C1.62891 15.6681 1.97623 14.9461 3.20744 14.2536C4.39164 13.5874 6.12859 13.1282 8.12891 13.1282C10.1292 13.1282 11.8662 13.5874 13.0504 14.2536C14.2816 14.9461 14.6289 15.6681 14.6289 16.1282Z" fill="#822B23"/>
</svg>
