<svg width="112" height="109" viewBox="0 0 112 109" fill="none" xmlns="http://www.w3.org/2000/svg">
<path d="M55.6667 78.125C56.9889 78.125 58.0972 77.6898 58.9917 76.8193C59.8861 75.9488 60.3333 74.8701 60.3333 73.5833C60.3333 72.2965 59.8861 71.2179 58.9917 70.3474C58.0972 69.4769 56.9889 69.0417 55.6667 69.0417C54.3444 69.0417 53.2361 69.4769 52.3417 70.3474C51.4472 71.2179 51 72.2965 51 73.5833C51 74.8701 51.4472 75.9488 52.3417 76.8193C53.2361 77.6898 54.3444 78.125 55.6667 78.125ZM51 59.9583H60.3333V32.7083H51V59.9583ZM55.6667 100.833C49.2111 100.833 43.1444 99.6411 37.4667 97.2568C31.7889 94.8724 26.85 91.6365 22.65 87.549C18.45 83.4615 15.125 78.6549 12.675 73.1292C10.225 67.6035 9 61.6993 9 55.4167C9 49.134 10.225 43.2299 12.675 37.7042C15.125 32.1785 18.45 27.3719 22.65 23.2844C26.85 19.1969 31.7889 15.9609 37.4667 13.5766C43.1444 11.1922 49.2111 10 55.6667 10C62.1222 10 68.1889 11.1922 73.8667 13.5766C79.5444 15.9609 84.4833 19.1969 88.6833 23.2844C92.8833 27.3719 96.2083 32.1785 98.6583 37.7042C101.108 43.2299 102.333 49.134 102.333 55.4167C102.333 61.6993 101.108 67.6035 98.6583 73.1292C96.2083 78.6549 92.8833 83.4615 88.6833 87.549C84.4833 91.6365 79.5444 94.8724 73.8667 97.2568C68.1889 99.6411 62.1222 100.833 55.6667 100.833ZM55.6667 91.75C66.0889 91.75 74.9167 88.2302 82.15 81.1906C89.3833 74.151 93 65.5597 93 55.4167C93 45.2736 89.3833 36.6823 82.15 29.6427C74.9167 22.6031 66.0889 19.0833 55.6667 19.0833C45.2444 19.0833 36.4167 22.6031 29.1833 29.6427C21.95 36.6823 18.3333 45.2736 18.3333 55.4167C18.3333 65.5597 21.95 74.151 29.1833 81.1906C36.4167 88.2302 45.2444 91.75 55.6667 91.75Z" fill="#822B23"/>
<path d="M-36 -6.5H148C149.933 -6.5 151.5 -4.933 151.5 -3V105C151.5 106.933 149.933 108.5 148 108.5H-36C-37.933 108.5 -39.5 106.933 -39.5 105V-3C-39.5 -4.93299 -37.933 -6.5 -36 -6.5Z" fill="#822B23" fill-opacity="0.13" stroke="#EDEDF2"/>
</svg>
