<svg width="208" height="232" viewBox="0 0 208 232" fill="none" xmlns="http://www.w3.org/2000/svg">
<circle cx="104" cy="124" r="104" fill="#D9D9D9" fill-opacity="0.6"/>
<circle cx="104" cy="124" r="90" fill="#D9D9D9"/>
<path d="M105 150.5C106.502 150.5 107.76 149.992 108.776 148.976C109.792 147.96 110.3 146.702 110.3 145.2C110.3 143.698 109.792 142.44 108.776 141.424C107.76 140.408 106.502 139.9 105 139.9C103.498 139.9 102.24 140.408 101.224 141.424C100.208 142.44 99.7 143.698 99.7 145.2C99.7 146.702 100.208 147.96 101.224 148.976C102.24 149.992 103.498 150.5 105 150.5ZM99.7 129.3H110.3V97.5H99.7V129.3ZM105 177C97.6683 177 90.7783 175.609 84.33 172.826C77.8817 170.044 72.2725 166.268 67.5025 161.498C62.7325 156.728 58.9563 151.118 56.1737 144.67C53.3912 138.222 52 131.332 52 124C52 116.668 53.3912 109.778 56.1737 103.33C58.9563 96.8817 62.7325 91.2725 67.5025 86.5025C72.2725 81.7325 77.8817 77.9562 84.33 75.1738C90.7783 72.3913 97.6683 71 105 71C112.332 71 119.222 72.3913 125.67 75.1738C132.118 77.9562 137.728 81.7325 142.498 86.5025C147.268 91.2725 151.044 96.8817 153.826 103.33C156.609 109.778 158 116.668 158 124C158 131.332 156.609 138.222 153.826 144.67C151.044 151.118 147.268 156.728 142.498 161.498C137.728 166.268 132.118 170.044 125.67 172.826C119.222 175.609 112.332 177 105 177ZM105 166.4C116.837 166.4 126.863 162.292 135.078 154.077C143.293 145.862 147.4 135.837 147.4 124C147.4 112.163 143.293 102.138 135.078 93.9225C126.863 85.7075 116.837 81.6 105 81.6C93.1633 81.6 83.1375 85.7075 74.9225 93.9225C66.7075 102.138 62.6 112.163 62.6 124C62.6 135.837 66.7075 145.862 74.9225 154.077C83.1375 162.292 93.1633 166.4 105 166.4Z" fill="#822B23" fill-opacity="0.8"/>
<line x1="16" y1="229.5" x2="193" y2="229.5" stroke="#D9D9D9" stroke-width="5"/>
</svg>
